<svg width="48" height="48" viewBox="0 0 48 48" fill="none" xmlns="http://www.w3.org/2000/svg">
<path d="M24 0.0957031C10.5341 0.0957031 0.0955811 9.95961 0.0955811 23.283C0.0955811 30.2525 2.95168 36.2735 7.60251 40.4339C7.99359 40.7829 8.22881 41.2734 8.24506 41.7964L8.3751 46.0495C8.41622 47.4053 9.81797 48.2879 11.0581 47.74L15.8027 45.645C16.2052 45.4681 16.6556 45.4347 17.0792 45.5523C19.2602 46.1518 21.5799 46.4712 23.999 46.4712C37.4648 46.4712 47.9034 36.6073 47.9034 23.2839C47.9034 9.96056 37.4658 0.0957031 24 0.0957031ZM38.813 17.0955L30.4905 29.958C30.0679 30.6111 29.1968 30.7975 28.5437 30.3749L20.8341 25.3865C20.5357 25.1934 20.1494 25.1991 19.8569 25.4009L11.1671 31.3942C9.89925 32.2681 8.34929 30.7641 9.18594 29.4713L17.5094 16.6088C17.9321 15.9558 18.8032 15.7693 19.4553 16.192L27.1668 21.1813C27.4651 21.3744 27.8514 21.3687 28.144 21.1669L36.8318 15.1746C38.0997 14.2997 39.6497 15.8047 38.813 17.0975V17.0955Z" fill="white"/>
</svg>
